<?xml version="1.0" encoding="utf-8"?>
<!-- License: CC Attribution. Made by lastspark: https://dribbble.com/last_spark -->
<svg width="800px" height="800px" viewBox="-11.48 0 138.146 138.146" xmlns="http://www.w3.org/2000/svg">
  <g id="latte" transform="translate(-838.69 469.072)">
    <path id="path276" d="M925.782-410.251H843.4V-425.36h82.383v15.109" fill="#f8fafc"/>
    <path id="path278" d="M927.042-408.814h-84l-1.8,31.12,16.188,44.251,55.4-.721,15.109-51.447-.9-23.2" fill="#f25547"/>
    <path id="path280" d="M910.044-437.166l-11.535,8.972h-3.643l-9.309-9.441-15.147,9.1s-6.573-5.735-10.419-8.635-9.729,8.635-9.729,8.635l69.966.876-10.185-9.511" fill="#f8fafc"/>
    <path id="path282" d="M927.224-414.388l1.98,10.7,8.816,1.979,1.075,16.551.452,8.9-3.6,1.8-9.356.54-1.348,12.233,25.543-2.609v-49.195l-23.565-.9" fill="#ea4037"/>
    <path id="path284" d="M865.133-464.362s0,0,0,0h0Zm-2,13.341a11.823,11.823,0,0,0,1.98,3.9h0a2.87,2.87,0,0,0,2.239,1.076,2.882,2.882,0,0,0,2.88-2.884,2.872,2.872,0,0,0-.641-1.805h0a6.418,6.418,0,0,1-.932-1.88,2.718,2.718,0,0,1,.731-2.98,8.38,8.38,0,0,0,2.175-8.584,11.639,11.639,0,0,0-1.993-3.845s0,0,0,0v0h0a2.876,2.876,0,0,0-2.219-1.043,2.881,2.881,0,0,0-2.88,2.876,2.865,2.865,0,0,0,.659,1.831l-.008-.009a6.032,6.032,0,0,1,.956,1.935,2.617,2.617,0,0,1-.768,2.783,8.471,8.471,0,0,0-2.177,8.637" fill="#100f0d"/>
    <path id="path286" d="M882.468-464.362l0,0h0Zm-2,13.341a11.841,11.841,0,0,0,1.981,3.9h0a2.876,2.876,0,0,0,2.239,1.076,2.882,2.882,0,0,0,2.88-2.884,2.892,2.892,0,0,0-.637-1.805h0l.012.019a6.291,6.291,0,0,1-.973-2.016,2.688,2.688,0,0,1,.759-2.863,8.369,8.369,0,0,0,2.176-8.584,11.665,11.665,0,0,0-1.989-3.845l-.005,0,0,0h0a2.87,2.87,0,0,0-2.217-1.043,2.877,2.877,0,0,0-2.876,2.876,2.861,2.861,0,0,0,.655,1.831l-.008-.009a5.938,5.938,0,0,1,.956,1.935,2.623,2.623,0,0,1-.764,2.783,8.465,8.465,0,0,0-2.183,8.637" fill="#100f0d"/>
    <path id="path288" d="M899.8-464.362l0,0h0Zm-2,13.341a11.862,11.862,0,0,0,1.979,3.9h0a2.884,2.884,0,0,0,2.243,1.076,2.878,2.878,0,0,0,2.875-2.884,2.883,2.883,0,0,0-.637-1.805h0l.019.019a6.116,6.116,0,0,1-.979-2.016,2.7,2.7,0,0,1,.759-2.863,8.374,8.374,0,0,0,2.18-8.584,11.776,11.776,0,0,0-1.993-3.845s-.005,0-.005,0l0,0h0a2.868,2.868,0,0,0-2.213-1.043,2.88,2.88,0,0,0-2.88,2.876,2.849,2.849,0,0,0,.657,1.831l-.012-.009a5.812,5.812,0,0,1,.957,1.935,2.616,2.616,0,0,1-.764,2.783,8.469,8.469,0,0,0-2.18,8.637" fill="#100f0d"/>
    <path id="path290" d="M948.112-365.463H927.574q.652-2.91,1.147-5.759H936.6a5.75,5.75,0,0,0,5.755-5.749V-400a5.757,5.757,0,0,0-5.755-5.759h-6.421c-.172-2.024-.383-3.945-.62-5.751h18.549Zm-37.3,28.777H910.7a2.875,2.875,0,0,0-.841-2.032,2.887,2.887,0,0,0-4.073,0,2.877,2.877,0,0,0-.843,2.032h-5.755a2.872,2.872,0,0,0-.844-2.032,2.88,2.88,0,0,0-4.068,0,2.856,2.856,0,0,0-.844,2.032h-5.757a2.856,2.856,0,0,0-.844-2.032,2.88,2.88,0,0,0-4.068,0,2.872,2.872,0,0,0-.844,2.032h-5.755a2.871,2.871,0,0,0-.843-2.032,2.887,2.887,0,0,0-4.073,0,2.881,2.881,0,0,0-.841,2.032h-5.756a2.877,2.877,0,0,0-.843-2.032,2.88,2.88,0,0,0-4.068,0,2.854,2.854,0,0,0-.843,2.032h-.333A117.58,117.58,0,0,1,847.182-367.8a126.529,126.529,0,0,1-2.687-29.827c.077-2.871.251-5.589.476-8.136H924.4c.228,2.547.4,5.265.476,8.136a126.667,126.667,0,0,1-2.685,29.827A117.769,117.769,0,0,1,910.811-336.686Zm-50.819-97.52,5.427,5.429H854.569Zm24.808,0,5.429,5.429H879.372Zm24.805,0,5.429,5.429H904.18ZM930.554-400H936.6v23.028h-7.012A134.464,134.464,0,0,0,930.554-400Zm-82.791-23.028h73.849a115.124,115.124,0,0,1,2.141,11.519H845.622A114.381,114.381,0,0,1,847.763-423.027Zm100.349,5.76H928.691A88.829,88.829,0,0,0,926-428.776h-2.824l-10.059-10.059a4.959,4.959,0,0,0-3.512-1.46,4.954,4.954,0,0,0-3.508,1.46l-8.9,8.891-8.895-8.891a4.944,4.944,0,0,0-3.507-1.46,4.947,4.947,0,0,0-3.508,1.46l-8.9,8.891-8.9-8.891a4.945,4.945,0,0,0-3.508-1.46,4.951,4.951,0,0,0-3.507,1.46l-10.06,10.059H843.37s-16.247,48.92,11.805,97.85H914.2A122.64,122.64,0,0,0,926.148-359.7h21.964a5.762,5.762,0,0,0,5.76-5.76v-46.045a5.758,5.758,0,0,0-5.76-5.759" fill="#100f0d"/>
    <path id="path292" d="M851.106-422.183a2.878,2.878,0,0,0,0,4.072,2.879,2.879,0,0,0,4.069,0,2.878,2.878,0,0,0,0-4.072,2.882,2.882,0,0,0-4.069,0" fill="#100f0d"/>
    <path id="path294" d="M856.861-416.423a2.876,2.876,0,0,0,0,4.071,2.88,2.88,0,0,0,4.068,0,2.874,2.874,0,0,0,0-4.071,2.878,2.878,0,0,0-4.068,0" fill="#100f0d"/>
    <path id="path296" d="M862.615-422.183a2.885,2.885,0,0,0,0,4.072,2.884,2.884,0,0,0,4.073,0,2.888,2.888,0,0,0,0-4.072,2.887,2.887,0,0,0-4.073,0" fill="#100f0d"/>
    <path id="path298" d="M868.374-416.423a2.876,2.876,0,0,0,0,4.071,2.882,2.882,0,0,0,4.069,0,2.876,2.876,0,0,0,0-4.071,2.879,2.879,0,0,0-4.069,0" fill="#100f0d"/>
    <path id="path300" d="M874.13-422.183a2.875,2.875,0,0,0,0,4.072,2.876,2.876,0,0,0,4.067,0,2.875,2.875,0,0,0,0-4.072,2.879,2.879,0,0,0-4.067,0" fill="#100f0d"/>
    <path id="path302" d="M879.883-416.423a2.883,2.883,0,0,0,0,4.071,2.887,2.887,0,0,0,4.073,0,2.883,2.883,0,0,0,0-4.071,2.884,2.884,0,0,0-4.073,0" fill="#100f0d"/>
    <path id="path304" d="M885.642-422.183a2.88,2.88,0,0,0,0,4.072,2.879,2.879,0,0,0,4.069,0,2.878,2.878,0,0,0,0-4.072,2.882,2.882,0,0,0-4.069,0" fill="#100f0d"/>
    <path id="path306" d="M891.4-416.423a2.874,2.874,0,0,0,0,4.071,2.88,2.88,0,0,0,4.068,0,2.876,2.876,0,0,0,0-4.071,2.878,2.878,0,0,0-4.068,0" fill="#100f0d"/>
    <path id="path308" d="M897.151-422.183a2.885,2.885,0,0,0,0,4.072,2.884,2.884,0,0,0,4.073,0,2.885,2.885,0,0,0,0-4.072,2.887,2.887,0,0,0-4.073,0" fill="#100f0d"/>
    <path id="path310" d="M902.911-416.423a2.874,2.874,0,0,0,0,4.071,2.88,2.88,0,0,0,4.068,0,2.876,2.876,0,0,0,0-4.071,2.878,2.878,0,0,0-4.068,0" fill="#100f0d"/>
    <path id="path312" d="M908.666-422.183a2.875,2.875,0,0,0,0,4.072,2.878,2.878,0,0,0,4.068,0,2.878,2.878,0,0,0,0-4.072,2.88,2.88,0,0,0-4.068,0" fill="#100f0d"/>
    <path id="path314" d="M914.419-416.423a2.886,2.886,0,0,0,0,4.071,2.887,2.887,0,0,0,4.073,0,2.883,2.883,0,0,0,0-4.071,2.884,2.884,0,0,0-4.073,0" fill="#100f0d"/>
  </g>
</svg>