<?xml version="1.0" encoding="iso-8859-1"?>
<!-- Generator: Adobe Illustrator 19.0.0, SVG Export Plug-In . SVG Version: 6.00 Build 0)  -->
<!-- License: CC0. Made by SVG Repo: https://www.svgrepo.com/svg/213234/latte -->
<svg version="1.1" id="Layer_1" xmlns="http://www.w3.org/2000/svg" xmlns:xlink="http://www.w3.org/1999/xlink" x="0px" y="0px"
	 viewBox="0 0 511.999 511.999" style="enable-background:new 0 0 511.999 511.999;" xml:space="preserve">
<path style="fill:#E7ECED;" d="M459.055,78.093c0,6.243,0,237.235,0,237.235h-49.944V128.037c0,0,0-6.243-6.243-6.243h-64.053
	l1.624-49.944h112.375C452.812,71.85,459.055,71.85,459.055,78.093z"/>
<path style="fill:#704324;" d="M121.931,458.918H65.745L60.376,290.73c39.331,2.373,47.322,24.597,90.649,24.597
	c45.824,0,45.824-24.972,91.523-24.972c43.077,0,51.192,21.975,90.024,24.598l-4.62,143.964h-56.187l12.487,43.701H109.445
	L121.931,458.918z"/>
<path style="fill:#87522E;" d="M151.024,171.739c45.824,0,45.824-24.972,91.523-24.972c44.701,0,51.693,23.724,94.645,24.847
	l-4.62,143.339c-38.832-2.622-46.947-24.598-90.024-24.598c-45.699,0-45.699,24.972-91.523,24.972
	c-43.326,0-51.317-22.225-90.649-24.597l-4.62-143.84C99.207,147.641,106.074,171.739,151.024,171.739z"/>
<path style="fill:#B1906A;" d="M65.869,71.85c2.248-3.496,40.205-56.437,127.857-62.431
	c99.763,12.111,126.359,59.309,127.857,62.431H65.869z"/>
<path style="fill:#FFD57D;" d="M242.547,146.767c-45.699,0-45.699,24.972-91.523,24.972c-44.95,0-51.817-24.098-95.269-24.847
	L53.258,71.85h12.485c0,0,0,0,0.125,0h255.714c0.125,0,0.125,0,0.125,0h18.729l-1.624,49.944l-1.624,49.819
	C294.239,170.49,287.247,146.767,242.547,146.767z"/>
<path d="M452.812,62.468H326.799c-4.031-5.829-12.23-15.725-26.864-26.113C273.439,17.551,238.086,5.355,194.856,0.108L193.975,0
	l-0.888,0.061c-80.204,5.483-120.795,48.514-131.9,62.407H43.561l13.098,405.83h52.836l-12.485,43.7h199.68l-12.487-43.7h52.836
	l10.856-337.123h51.838v193.534h68.706V78.093C468.436,67.944,460.387,62.468,452.812,62.468z M193.482,18.841
	c62.232,7.721,94.009,29.326,108.699,43.628H86.891C103.948,46.603,138.252,22.843,193.482,18.841z M323.195,314.653l-4.329,134.884
	h-59.54l12.487,43.7h-149.93l7.126-24.938h80.326v-18.762H74.832l-5.081-159.112L65.46,156.941
	c13.586,1.662,22.893,6.118,32.637,10.789c13.088,6.276,27.923,13.388,52.927,13.388c25.32,0,38.604-7.25,50.324-13.645
	c11.138-6.078,20.757-11.327,41.199-11.327c20.759,0,32.458,5.597,44.846,11.522c10.662,5.099,22.556,10.772,40.137,12.684
	L323.195,314.653z M328.133,161.543c-13.589-1.697-22.899-6.138-32.644-10.799c-13.09-6.261-27.925-13.358-52.941-13.358
	c-25.227,0-38.487,7.236-50.184,13.62c-11.163,6.091-20.804,11.352-41.339,11.352c-20.739,0-32.434-5.607-44.816-11.544
	c-10.919-5.236-23.105-11.073-41.362-12.807l-1.889-56.776h267.789L328.133,161.543z M449.674,305.947h-31.182v-177.91
	c0-7.575-5.476-15.624-15.625-15.624h-54.364l1.014-31.183h100.156v224.717H449.674z"/>
<g>
	<rect x="196.848" y="237.275" style="fill:#FFFFFF;" width="24.972" height="18.762"/>
	<rect x="246.792" y="224.792" style="fill:#FFFFFF;" width="24.972" height="18.762"/>
	<rect x="96.959" y="399.59" style="fill:#FFFFFF;" width="24.972" height="18.762"/>
	<rect x="146.904" y="374.624" style="fill:#FFFFFF;" width="24.973" height="18.762"/>
	<rect x="109.442" y="224.792" style="fill:#FFFFFF;" width="24.972" height="18.762"/>
	<rect x="234.309" y="362.129" style="fill:#FFFFFF;" width="24.972" height="18.762"/>
	<rect x="271.77" y="312.185" style="fill:#FFFFFF;" width="24.973" height="18.762"/>
	<rect x="184.365" y="299.702" style="fill:#FFFFFF;" width="24.972" height="18.762"/>
</g>
</svg>
